<?xml version="1.0" encoding="utf-8" standalone="no"?>
<!DOCTYPE svg PUBLIC "-//W3C//DTD SVG 1.1//EN"
  "http://www.w3.org/Graphics/SVG/1.1/DTD/svg11.dtd">
<svg xmlns:xlink="http://www.w3.org/1999/xlink" width="720pt" height="576pt" viewBox="0 0 720 576" xmlns="http://www.w3.org/2000/svg" version="1.1">
 <metadata>
  <rdf:RDF xmlns:dc="http://purl.org/dc/elements/1.1/" xmlns:cc="http://creativecommons.org/ns#" xmlns:rdf="http://www.w3.org/1999/02/22-rdf-syntax-ns#">
   <cc:Work>
    <dc:type rdf:resource="http://purl.org/dc/dcmitype/StillImage"/>
    <dc:date>2023-05-17T14:44:16.213365</dc:date>
    <dc:format>image/svg+xml</dc:format>
    <dc:creator>
     <cc:Agent>
      <dc:title>Matplotlib v3.7.1, https://matplotlib.org/</dc:title>
     </cc:Agent>
    </dc:creator>
   </cc:Work>
  </rdf:RDF>
 </metadata>
 <defs>
  <style type="text/css">*{stroke-linejoin: round; stroke-linecap: butt}</style>
 </defs>
 <g id="figure_1">
  <g id="patch_1">
   <path d="M 0 576 
L 720 576 
L 720 0 
L 0 0 
z
" style="fill: #ffffff"/>
  </g>
  <g id="axes_1">
   <g id="patch_2">
    <path d="M 90 512.64 
L 648 512.64 
L 648 69.12 
L 90 69.12 
z
" style="fill: #ffffff"/>
   </g>
   <g id="matplotlib.axis_1">
    <g id="xtick_1">
     <g id="line2d_1">
      <path d="M 115.363636 512.64 
L 115.363636 69.12 
" clip-path="url(#pdc7c34a76f)" style="fill: none; stroke: #b0b0b0; stroke-width: 0.8; stroke-linecap: square"/>
     </g>
     <g id="line2d_2">
      <defs>
       <path id="m8d9e1274fa" d="M 0 0 
L 0 3.5 
" style="stroke: #000000; stroke-width: 0.8"/>
      </defs>
      <g>
       <use xlink:href="#m8d9e1274fa" x="115.363636" y="512.64" style="stroke: #000000; stroke-width: 0.8"/>
      </g>
     </g>
     <g id="text_1">
      <!-- 0 -->
      <g transform="translate(112.182386 527.238438) scale(0.1 -0.1)">
       <defs>
        <path id="DejaVuSans-30" d="M 2034 4250 
Q 1547 4250 1301 3770 
Q 1056 3291 1056 2328 
Q 1056 1369 1301 889 
Q 1547 409 2034 409 
Q 2525 409 2770 889 
Q 3016 1369 3016 2328 
Q 3016 3291 2770 3770 
Q 2525 4250 2034 4250 
z
M 2034 4750 
Q 2819 4750 3233 4129 
Q 3647 3509 3647 2328 
Q 3647 1150 3233 529 
Q 2819 -91 2034 -91 
Q 1250 -91 836 529 
Q 422 1150 422 2328 
Q 422 3509 836 4129 
Q 1250 4750 2034 4750 
z
" transform="scale(0.015625)"/>
       </defs>
       <use xlink:href="#DejaVuSans-30"/>
      </g>
     </g>
    </g>
    <g id="xtick_2">
     <g id="line2d_3">
      <path d="M 199.769821 512.64 
L 199.769821 69.12 
" clip-path="url(#pdc7c34a76f)" style="fill: none; stroke: #b0b0b0; stroke-width: 0.8; stroke-linecap: square"/>
     </g>
     <g id="line2d_4">
      <g>
       <use xlink:href="#m8d9e1274fa" x="199.769821" y="512.64" style="stroke: #000000; stroke-width: 0.8"/>
      </g>
     </g>
     <g id="text_2">
      <!-- 2 -->
      <g transform="translate(196.588571 527.238438) scale(0.1 -0.1)">
       <defs>
        <path id="DejaVuSans-32" d="M 1228 531 
L 3431 531 
L 3431 0 
L 469 0 
L 469 531 
Q 828 903 1448 1529 
Q 2069 2156 2228 2338 
Q 2531 2678 2651 2914 
Q 2772 3150 2772 3378 
Q 2772 3750 2511 3984 
Q 2250 4219 1831 4219 
Q 1534 4219 1204 4116 
Q 875 4013 500 3803 
L 500 4441 
Q 881 4594 1212 4672 
Q 1544 4750 1819 4750 
Q 2544 4750 2975 4387 
Q 3406 4025 3406 3419 
Q 3406 3131 3298 2873 
Q 3191 2616 2906 2266 
Q 2828 2175 2409 1742 
Q 1991 1309 1228 531 
z
" transform="scale(0.015625)"/>
       </defs>
       <use xlink:href="#DejaVuSans-32"/>
      </g>
     </g>
    </g>
    <g id="xtick_3">
     <g id="line2d_5">
      <path d="M 284.176005 512.64 
L 284.176005 69.12 
" clip-path="url(#pdc7c34a76f)" style="fill: none; stroke: #b0b0b0; stroke-width: 0.8; stroke-linecap: square"/>
     </g>
     <g id="line2d_6">
      <g>
       <use xlink:href="#m8d9e1274fa" x="284.176005" y="512.64" style="stroke: #000000; stroke-width: 0.8"/>
      </g>
     </g>
     <g id="text_3">
      <!-- 4 -->
      <g transform="translate(280.994755 527.238438) scale(0.1 -0.1)">
       <defs>
        <path id="DejaVuSans-34" d="M 2419 4116 
L 825 1625 
L 2419 1625 
L 2419 4116 
z
M 2253 4666 
L 3047 4666 
L 3047 1625 
L 3713 1625 
L 3713 1100 
L 3047 1100 
L 3047 0 
L 2419 0 
L 2419 1100 
L 313 1100 
L 313 1709 
L 2253 4666 
z
" transform="scale(0.015625)"/>
       </defs>
       <use xlink:href="#DejaVuSans-34"/>
      </g>
     </g>
    </g>
    <g id="xtick_4">
     <g id="line2d_7">
      <path d="M 368.582189 512.64 
L 368.582189 69.12 
" clip-path="url(#pdc7c34a76f)" style="fill: none; stroke: #b0b0b0; stroke-width: 0.8; stroke-linecap: square"/>
     </g>
     <g id="line2d_8">
      <g>
       <use xlink:href="#m8d9e1274fa" x="368.582189" y="512.64" style="stroke: #000000; stroke-width: 0.8"/>
      </g>
     </g>
     <g id="text_4">
      <!-- 6 -->
      <g transform="translate(365.400939 527.238438) scale(0.1 -0.1)">
       <defs>
        <path id="DejaVuSans-36" d="M 2113 2584 
Q 1688 2584 1439 2293 
Q 1191 2003 1191 1497 
Q 1191 994 1439 701 
Q 1688 409 2113 409 
Q 2538 409 2786 701 
Q 3034 994 3034 1497 
Q 3034 2003 2786 2293 
Q 2538 2584 2113 2584 
z
M 3366 4563 
L 3366 3988 
Q 3128 4100 2886 4159 
Q 2644 4219 2406 4219 
Q 1781 4219 1451 3797 
Q 1122 3375 1075 2522 
Q 1259 2794 1537 2939 
Q 1816 3084 2150 3084 
Q 2853 3084 3261 2657 
Q 3669 2231 3669 1497 
Q 3669 778 3244 343 
Q 2819 -91 2113 -91 
Q 1303 -91 875 529 
Q 447 1150 447 2328 
Q 447 3434 972 4092 
Q 1497 4750 2381 4750 
Q 2619 4750 2861 4703 
Q 3103 4656 3366 4563 
z
" transform="scale(0.015625)"/>
       </defs>
       <use xlink:href="#DejaVuSans-36"/>
      </g>
     </g>
    </g>
    <g id="xtick_5">
     <g id="line2d_9">
      <path d="M 452.988374 512.64 
L 452.988374 69.12 
" clip-path="url(#pdc7c34a76f)" style="fill: none; stroke: #b0b0b0; stroke-width: 0.8; stroke-linecap: square"/>
     </g>
     <g id="line2d_10">
      <g>
       <use xlink:href="#m8d9e1274fa" x="452.988374" y="512.64" style="stroke: #000000; stroke-width: 0.8"/>
      </g>
     </g>
     <g id="text_5">
      <!-- 8 -->
      <g transform="translate(449.807124 527.238438) scale(0.1 -0.1)">
       <defs>
        <path id="DejaVuSans-38" d="M 2034 2216 
Q 1584 2216 1326 1975 
Q 1069 1734 1069 1313 
Q 1069 891 1326 650 
Q 1584 409 2034 409 
Q 2484 409 2743 651 
Q 3003 894 3003 1313 
Q 3003 1734 2745 1975 
Q 2488 2216 2034 2216 
z
M 1403 2484 
Q 997 2584 770 2862 
Q 544 3141 544 3541 
Q 544 4100 942 4425 
Q 1341 4750 2034 4750 
Q 2731 4750 3128 4425 
Q 3525 4100 3525 3541 
Q 3525 3141 3298 2862 
Q 3072 2584 2669 2484 
Q 3125 2378 3379 2068 
Q 3634 1759 3634 1313 
Q 3634 634 3220 271 
Q 2806 -91 2034 -91 
Q 1263 -91 848 271 
Q 434 634 434 1313 
Q 434 1759 690 2068 
Q 947 2378 1403 2484 
z
M 1172 3481 
Q 1172 3119 1398 2916 
Q 1625 2713 2034 2713 
Q 2441 2713 2670 2916 
Q 2900 3119 2900 3481 
Q 2900 3844 2670 4047 
Q 2441 4250 2034 4250 
Q 1625 4250 1398 4047 
Q 1172 3844 1172 3481 
z
" transform="scale(0.015625)"/>
       </defs>
       <use xlink:href="#DejaVuSans-38"/>
      </g>
     </g>
    </g>
    <g id="xtick_6">
     <g id="line2d_11">
      <path d="M 537.394558 512.64 
L 537.394558 69.12 
" clip-path="url(#pdc7c34a76f)" style="fill: none; stroke: #b0b0b0; stroke-width: 0.8; stroke-linecap: square"/>
     </g>
     <g id="line2d_12">
      <g>
       <use xlink:href="#m8d9e1274fa" x="537.394558" y="512.64" style="stroke: #000000; stroke-width: 0.8"/>
      </g>
     </g>
     <g id="text_6">
      <!-- 10 -->
      <g transform="translate(531.032058 527.238438) scale(0.1 -0.1)">
       <defs>
        <path id="DejaVuSans-31" d="M 794 531 
L 1825 531 
L 1825 4091 
L 703 3866 
L 703 4441 
L 1819 4666 
L 2450 4666 
L 2450 531 
L 3481 531 
L 3481 0 
L 794 0 
L 794 531 
z
" transform="scale(0.015625)"/>
       </defs>
       <use xlink:href="#DejaVuSans-31"/>
       <use xlink:href="#DejaVuSans-30" x="63.623047"/>
      </g>
     </g>
    </g>
    <g id="xtick_7">
     <g id="line2d_13">
      <path d="M 621.800742 512.64 
L 621.800742 69.12 
" clip-path="url(#pdc7c34a76f)" style="fill: none; stroke: #b0b0b0; stroke-width: 0.8; stroke-linecap: square"/>
     </g>
     <g id="line2d_14">
      <g>
       <use xlink:href="#m8d9e1274fa" x="621.800742" y="512.64" style="stroke: #000000; stroke-width: 0.8"/>
      </g>
     </g>
     <g id="text_7">
      <!-- 12 -->
      <g transform="translate(615.438242 527.238438) scale(0.1 -0.1)">
       <use xlink:href="#DejaVuSans-31"/>
       <use xlink:href="#DejaVuSans-32" x="63.623047"/>
      </g>
     </g>
    </g>
    <g id="xtick_8">
     <g id="line2d_15">
      <path d="M 94.26209 512.64 
L 94.26209 69.12 
" clip-path="url(#pdc7c34a76f)" style="fill: none; stroke-dasharray: 0.8,1.32; stroke-dashoffset: 0; stroke: #b0b0b0; stroke-width: 0.8"/>
     </g>
     <g id="line2d_16">
      <defs>
       <path id="mee9dbde4a1" d="M 0 0 
L 0 2 
" style="stroke: #000000; stroke-width: 0.6"/>
      </defs>
      <g>
       <use xlink:href="#mee9dbde4a1" x="94.26209" y="512.64" style="stroke: #000000; stroke-width: 0.6"/>
      </g>
     </g>
    </g>
    <g id="xtick_9">
     <g id="line2d_17">
      <path d="M 136.465182 512.64 
L 136.465182 69.12 
" clip-path="url(#pdc7c34a76f)" style="fill: none; stroke-dasharray: 0.8,1.32; stroke-dashoffset: 0; stroke: #b0b0b0; stroke-width: 0.8"/>
     </g>
     <g id="line2d_18">
      <g>
       <use xlink:href="#mee9dbde4a1" x="136.465182" y="512.64" style="stroke: #000000; stroke-width: 0.6"/>
      </g>
     </g>
    </g>
    <g id="xtick_10">
     <g id="line2d_19">
      <path d="M 157.566729 512.64 
L 157.566729 69.12 
" clip-path="url(#pdc7c34a76f)" style="fill: none; stroke-dasharray: 0.8,1.32; stroke-dashoffset: 0; stroke: #b0b0b0; stroke-width: 0.8"/>
     </g>
     <g id="line2d_20">
      <g>
       <use xlink:href="#mee9dbde4a1" x="157.566729" y="512.64" style="stroke: #000000; stroke-width: 0.6"/>
      </g>
     </g>
    </g>
    <g id="xtick_11">
     <g id="line2d_21">
      <path d="M 178.668275 512.64 
L 178.668275 69.12 
" clip-path="url(#pdc7c34a76f)" style="fill: none; stroke-dasharray: 0.8,1.32; stroke-dashoffset: 0; stroke: #b0b0b0; stroke-width: 0.8"/>
     </g>
     <g id="line2d_22">
      <g>
       <use xlink:href="#mee9dbde4a1" x="178.668275" y="512.64" style="stroke: #000000; stroke-width: 0.6"/>
      </g>
     </g>
    </g>
    <g id="xtick_12">
     <g id="line2d_23">
      <path d="M 220.871367 512.64 
L 220.871367 69.12 
" clip-path="url(#pdc7c34a76f)" style="fill: none; stroke-dasharray: 0.8,1.32; stroke-dashoffset: 0; stroke: #b0b0b0; stroke-width: 0.8"/>
     </g>
     <g id="line2d_24">
      <g>
       <use xlink:href="#mee9dbde4a1" x="220.871367" y="512.64" style="stroke: #000000; stroke-width: 0.6"/>
      </g>
     </g>
    </g>
    <g id="xtick_13">
     <g id="line2d_25">
      <path d="M 241.972913 512.64 
L 241.972913 69.12 
" clip-path="url(#pdc7c34a76f)" style="fill: none; stroke-dasharray: 0.8,1.32; stroke-dashoffset: 0; stroke: #b0b0b0; stroke-width: 0.8"/>
     </g>
     <g id="line2d_26">
      <g>
       <use xlink:href="#mee9dbde4a1" x="241.972913" y="512.64" style="stroke: #000000; stroke-width: 0.6"/>
      </g>
     </g>
    </g>
    <g id="xtick_14">
     <g id="line2d_27">
      <path d="M 263.074459 512.64 
L 263.074459 69.12 
" clip-path="url(#pdc7c34a76f)" style="fill: none; stroke-dasharray: 0.8,1.32; stroke-dashoffset: 0; stroke: #b0b0b0; stroke-width: 0.8"/>
     </g>
     <g id="line2d_28">
      <g>
       <use xlink:href="#mee9dbde4a1" x="263.074459" y="512.64" style="stroke: #000000; stroke-width: 0.6"/>
      </g>
     </g>
    </g>
    <g id="xtick_15">
     <g id="line2d_29">
      <path d="M 305.277551 512.64 
L 305.277551 69.12 
" clip-path="url(#pdc7c34a76f)" style="fill: none; stroke-dasharray: 0.8,1.32; stroke-dashoffset: 0; stroke: #b0b0b0; stroke-width: 0.8"/>
     </g>
     <g id="line2d_30">
      <g>
       <use xlink:href="#mee9dbde4a1" x="305.277551" y="512.64" style="stroke: #000000; stroke-width: 0.6"/>
      </g>
     </g>
    </g>
    <g id="xtick_16">
     <g id="line2d_31">
      <path d="M 326.379097 512.64 
L 326.379097 69.12 
" clip-path="url(#pdc7c34a76f)" style="fill: none; stroke-dasharray: 0.8,1.32; stroke-dashoffset: 0; stroke: #b0b0b0; stroke-width: 0.8"/>
     </g>
     <g id="line2d_32">
      <g>
       <use xlink:href="#mee9dbde4a1" x="326.379097" y="512.64" style="stroke: #000000; stroke-width: 0.6"/>
      </g>
     </g>
    </g>
    <g id="xtick_17">
     <g id="line2d_33">
      <path d="M 347.480643 512.64 
L 347.480643 69.12 
" clip-path="url(#pdc7c34a76f)" style="fill: none; stroke-dasharray: 0.8,1.32; stroke-dashoffset: 0; stroke: #b0b0b0; stroke-width: 0.8"/>
     </g>
     <g id="line2d_34">
      <g>
       <use xlink:href="#mee9dbde4a1" x="347.480643" y="512.64" style="stroke: #000000; stroke-width: 0.6"/>
      </g>
     </g>
    </g>
    <g id="xtick_18">
     <g id="line2d_35">
      <path d="M 389.683735 512.64 
L 389.683735 69.12 
" clip-path="url(#pdc7c34a76f)" style="fill: none; stroke-dasharray: 0.8,1.32; stroke-dashoffset: 0; stroke: #b0b0b0; stroke-width: 0.8"/>
     </g>
     <g id="line2d_36">
      <g>
       <use xlink:href="#mee9dbde4a1" x="389.683735" y="512.64" style="stroke: #000000; stroke-width: 0.6"/>
      </g>
     </g>
    </g>
    <g id="xtick_19">
     <g id="line2d_37">
      <path d="M 410.785282 512.64 
L 410.785282 69.12 
" clip-path="url(#pdc7c34a76f)" style="fill: none; stroke-dasharray: 0.8,1.32; stroke-dashoffset: 0; stroke: #b0b0b0; stroke-width: 0.8"/>
     </g>
     <g id="line2d_38">
      <g>
       <use xlink:href="#mee9dbde4a1" x="410.785282" y="512.64" style="stroke: #000000; stroke-width: 0.6"/>
      </g>
     </g>
    </g>
    <g id="xtick_20">
     <g id="line2d_39">
      <path d="M 431.886828 512.64 
L 431.886828 69.12 
" clip-path="url(#pdc7c34a76f)" style="fill: none; stroke-dasharray: 0.8,1.32; stroke-dashoffset: 0; stroke: #b0b0b0; stroke-width: 0.8"/>
     </g>
     <g id="line2d_40">
      <g>
       <use xlink:href="#mee9dbde4a1" x="431.886828" y="512.64" style="stroke: #000000; stroke-width: 0.6"/>
      </g>
     </g>
    </g>
    <g id="xtick_21">
     <g id="line2d_41">
      <path d="M 474.08992 512.64 
L 474.08992 69.12 
" clip-path="url(#pdc7c34a76f)" style="fill: none; stroke-dasharray: 0.8,1.32; stroke-dashoffset: 0; stroke: #b0b0b0; stroke-width: 0.8"/>
     </g>
     <g id="line2d_42">
      <g>
       <use xlink:href="#mee9dbde4a1" x="474.08992" y="512.64" style="stroke: #000000; stroke-width: 0.6"/>
      </g>
     </g>
    </g>
    <g id="xtick_22">
     <g id="line2d_43">
      <path d="M 495.191466 512.64 
L 495.191466 69.12 
" clip-path="url(#pdc7c34a76f)" style="fill: none; stroke-dasharray: 0.8,1.32; stroke-dashoffset: 0; stroke: #b0b0b0; stroke-width: 0.8"/>
     </g>
     <g id="line2d_44">
      <g>
       <use xlink:href="#mee9dbde4a1" x="495.191466" y="512.64" style="stroke: #000000; stroke-width: 0.6"/>
      </g>
     </g>
    </g>
    <g id="xtick_23">
     <g id="line2d_45">
      <path d="M 516.293012 512.64 
L 516.293012 69.12 
" clip-path="url(#pdc7c34a76f)" style="fill: none; stroke-dasharray: 0.8,1.32; stroke-dashoffset: 0; stroke: #b0b0b0; stroke-width: 0.8"/>
     </g>
     <g id="line2d_46">
      <g>
       <use xlink:href="#mee9dbde4a1" x="516.293012" y="512.64" style="stroke: #000000; stroke-width: 0.6"/>
      </g>
     </g>
    </g>
    <g id="xtick_24">
     <g id="line2d_47">
      <path d="M 558.496104 512.64 
L 558.496104 69.12 
" clip-path="url(#pdc7c34a76f)" style="fill: none; stroke-dasharray: 0.8,1.32; stroke-dashoffset: 0; stroke: #b0b0b0; stroke-width: 0.8"/>
     </g>
     <g id="line2d_48">
      <g>
       <use xlink:href="#mee9dbde4a1" x="558.496104" y="512.64" style="stroke: #000000; stroke-width: 0.6"/>
      </g>
     </g>
    </g>
    <g id="xtick_25">
     <g id="line2d_49">
      <path d="M 579.59765 512.64 
L 579.59765 69.12 
" clip-path="url(#pdc7c34a76f)" style="fill: none; stroke-dasharray: 0.8,1.32; stroke-dashoffset: 0; stroke: #b0b0b0; stroke-width: 0.8"/>
     </g>
     <g id="line2d_50">
      <g>
       <use xlink:href="#mee9dbde4a1" x="579.59765" y="512.64" style="stroke: #000000; stroke-width: 0.6"/>
      </g>
     </g>
    </g>
    <g id="xtick_26">
     <g id="line2d_51">
      <path d="M 600.699196 512.64 
L 600.699196 69.12 
" clip-path="url(#pdc7c34a76f)" style="fill: none; stroke-dasharray: 0.8,1.32; stroke-dashoffset: 0; stroke: #b0b0b0; stroke-width: 0.8"/>
     </g>
     <g id="line2d_52">
      <g>
       <use xlink:href="#mee9dbde4a1" x="600.699196" y="512.64" style="stroke: #000000; stroke-width: 0.6"/>
      </g>
     </g>
    </g>
    <g id="xtick_27">
     <g id="line2d_53">
      <path d="M 642.902288 512.64 
L 642.902288 69.12 
" clip-path="url(#pdc7c34a76f)" style="fill: none; stroke-dasharray: 0.8,1.32; stroke-dashoffset: 0; stroke: #b0b0b0; stroke-width: 0.8"/>
     </g>
     <g id="line2d_54">
      <g>
       <use xlink:href="#mee9dbde4a1" x="642.902288" y="512.64" style="stroke: #000000; stroke-width: 0.6"/>
      </g>
     </g>
    </g>
    <g id="text_8">
     <!-- Время t, с -->
     <g transform="translate(343.0625 540.916563) scale(0.1 -0.1)">
      <defs>
       <path id="DejaVuSans-412" d="M 1259 2228 
L 1259 519 
L 2272 519 
Q 2781 519 3026 730 
Q 3272 941 3272 1375 
Q 3272 1813 3026 2020 
Q 2781 2228 2272 2228 
L 1259 2228 
z
M 1259 4147 
L 1259 2741 
L 2194 2741 
Q 2656 2741 2882 2914 
Q 3109 3088 3109 3444 
Q 3109 3797 2882 3972 
Q 2656 4147 2194 4147 
L 1259 4147 
z
M 628 4666 
L 2241 4666 
Q 2963 4666 3353 4366 
Q 3744 4066 3744 3513 
Q 3744 3084 3544 2831 
Q 3344 2578 2956 2516 
Q 3422 2416 3680 2098 
Q 3938 1781 3938 1306 
Q 3938 681 3513 340 
Q 3088 0 2303 0 
L 628 0 
L 628 4666 
z
" transform="scale(0.015625)"/>
       <path id="DejaVuSans-440" d="M 1159 525 
L 1159 -1331 
L 581 -1331 
L 581 3500 
L 1159 3500 
L 1159 2969 
Q 1341 3281 1617 3432 
Q 1894 3584 2278 3584 
Q 2916 3584 3314 3078 
Q 3713 2572 3713 1747 
Q 3713 922 3314 415 
Q 2916 -91 2278 -91 
Q 1894 -91 1617 61 
Q 1341 213 1159 525 
z
M 3116 1747 
Q 3116 2381 2855 2742 
Q 2594 3103 2138 3103 
Q 1681 3103 1420 2742 
Q 1159 2381 1159 1747 
Q 1159 1113 1420 752 
Q 1681 391 2138 391 
Q 2594 391 2855 752 
Q 3116 1113 3116 1747 
z
" transform="scale(0.015625)"/>
       <path id="DejaVuSans-435" d="M 3597 1894 
L 3597 1613 
L 953 1613 
Q 991 1019 1311 708 
Q 1631 397 2203 397 
Q 2534 397 2845 478 
Q 3156 559 3463 722 
L 3463 178 
Q 3153 47 2828 -22 
Q 2503 -91 2169 -91 
Q 1331 -91 842 396 
Q 353 884 353 1716 
Q 353 2575 817 3079 
Q 1281 3584 2069 3584 
Q 2775 3584 3186 3129 
Q 3597 2675 3597 1894 
z
M 3022 2063 
Q 3016 2534 2758 2815 
Q 2500 3097 2075 3097 
Q 1594 3097 1305 2825 
Q 1016 2553 972 2059 
L 3022 2063 
z
" transform="scale(0.015625)"/>
       <path id="DejaVuSans-43c" d="M 581 3500 
L 1422 3500 
L 2416 1156 
L 3413 3500 
L 4247 3500 
L 4247 0 
L 3669 0 
L 3669 2950 
L 2703 672 
L 2128 672 
L 1159 2950 
L 1159 0 
L 581 0 
L 581 3500 
z
" transform="scale(0.015625)"/>
       <path id="DejaVuSans-44f" d="M 1181 2491 
Q 1181 2231 1381 2084 
Q 1581 1938 1953 1938 
L 2728 1938 
L 2728 3041 
L 1953 3041 
Q 1581 3041 1381 2897 
Q 1181 2753 1181 2491 
z
M 363 0 
L 1431 1534 
Q 1069 1616 828 1830 
Q 588 2044 588 2491 
Q 588 2997 923 3248 
Q 1259 3500 1938 3500 
L 3306 3500 
L 3306 0 
L 2728 0 
L 2728 1478 
L 2013 1478 
L 981 0 
L 363 0 
z
" transform="scale(0.015625)"/>
       <path id="DejaVuSans-20" transform="scale(0.015625)"/>
       <path id="DejaVuSans-74" d="M 1172 4494 
L 1172 3500 
L 2356 3500 
L 2356 3053 
L 1172 3053 
L 1172 1153 
Q 1172 725 1289 603 
Q 1406 481 1766 481 
L 2356 481 
L 2356 0 
L 1766 0 
Q 1100 0 847 248 
Q 594 497 594 1153 
L 594 3053 
L 172 3053 
L 172 3500 
L 594 3500 
L 594 4494 
L 1172 4494 
z
" transform="scale(0.015625)"/>
       <path id="DejaVuSans-2c" d="M 750 794 
L 1409 794 
L 1409 256 
L 897 -744 
L 494 -744 
L 750 256 
L 750 794 
z
" transform="scale(0.015625)"/>
       <path id="DejaVuSans-441" d="M 3122 3366 
L 3122 2828 
Q 2878 2963 2633 3030 
Q 2388 3097 2138 3097 
Q 1578 3097 1268 2742 
Q 959 2388 959 1747 
Q 959 1106 1268 751 
Q 1578 397 2138 397 
Q 2388 397 2633 464 
Q 2878 531 3122 666 
L 3122 134 
Q 2881 22 2623 -34 
Q 2366 -91 2075 -91 
Q 1284 -91 818 406 
Q 353 903 353 1747 
Q 353 2603 823 3093 
Q 1294 3584 2113 3584 
Q 2378 3584 2631 3529 
Q 2884 3475 3122 3366 
z
" transform="scale(0.015625)"/>
      </defs>
      <use xlink:href="#DejaVuSans-412"/>
      <use xlink:href="#DejaVuSans-440" x="68.603516"/>
      <use xlink:href="#DejaVuSans-435" x="132.080078"/>
      <use xlink:href="#DejaVuSans-43c" x="193.603516"/>
      <use xlink:href="#DejaVuSans-44f" x="269.042969"/>
      <use xlink:href="#DejaVuSans-20" x="329.199219"/>
      <use xlink:href="#DejaVuSans-74" x="360.986328"/>
      <use xlink:href="#DejaVuSans-2c" x="400.195312"/>
      <use xlink:href="#DejaVuSans-20" x="431.982422"/>
      <use xlink:href="#DejaVuSans-441" x="463.769531"/>
     </g>
    </g>
   </g>
   <g id="matplotlib.axis_2">
    <g id="ytick_1">
     <g id="line2d_55">
      <path d="M 90 494.119024 
L 648 494.119024 
" clip-path="url(#pdc7c34a76f)" style="fill: none; stroke: #b0b0b0; stroke-width: 0.8; stroke-linecap: square"/>
     </g>
     <g id="line2d_56">
      <defs>
       <path id="ma028fe1271" d="M 0 0 
L -3.5 0 
" style="stroke: #000000; stroke-width: 0.8"/>
      </defs>
      <g>
       <use xlink:href="#ma028fe1271" x="90" y="494.119024" style="stroke: #000000; stroke-width: 0.8"/>
      </g>
     </g>
     <g id="text_9">
      <!-- 0.0 -->
      <g transform="translate(67.096875 497.918243) scale(0.1 -0.1)">
       <defs>
        <path id="DejaVuSans-2e" d="M 684 794 
L 1344 794 
L 1344 0 
L 684 0 
L 684 794 
z
" transform="scale(0.015625)"/>
       </defs>
       <use xlink:href="#DejaVuSans-30"/>
       <use xlink:href="#DejaVuSans-2e" x="63.623047"/>
       <use xlink:href="#DejaVuSans-30" x="95.410156"/>
      </g>
     </g>
    </g>
    <g id="ytick_2">
     <g id="line2d_57">
      <path d="M 90 419.617916 
L 648 419.617916 
" clip-path="url(#pdc7c34a76f)" style="fill: none; stroke: #b0b0b0; stroke-width: 0.8; stroke-linecap: square"/>
     </g>
     <g id="line2d_58">
      <g>
       <use xlink:href="#ma028fe1271" x="90" y="419.617916" style="stroke: #000000; stroke-width: 0.8"/>
      </g>
     </g>
     <g id="text_10">
      <!-- 0.5 -->
      <g transform="translate(67.096875 423.417134) scale(0.1 -0.1)">
       <defs>
        <path id="DejaVuSans-35" d="M 691 4666 
L 3169 4666 
L 3169 4134 
L 1269 4134 
L 1269 2991 
Q 1406 3038 1543 3061 
Q 1681 3084 1819 3084 
Q 2600 3084 3056 2656 
Q 3513 2228 3513 1497 
Q 3513 744 3044 326 
Q 2575 -91 1722 -91 
Q 1428 -91 1123 -41 
Q 819 9 494 109 
L 494 744 
Q 775 591 1075 516 
Q 1375 441 1709 441 
Q 2250 441 2565 725 
Q 2881 1009 2881 1497 
Q 2881 1984 2565 2268 
Q 2250 2553 1709 2553 
Q 1456 2553 1204 2497 
Q 953 2441 691 2322 
L 691 4666 
z
" transform="scale(0.015625)"/>
       </defs>
       <use xlink:href="#DejaVuSans-30"/>
       <use xlink:href="#DejaVuSans-2e" x="63.623047"/>
       <use xlink:href="#DejaVuSans-35" x="95.410156"/>
      </g>
     </g>
    </g>
    <g id="ytick_3">
     <g id="line2d_59">
      <path d="M 90 345.116807 
L 648 345.116807 
" clip-path="url(#pdc7c34a76f)" style="fill: none; stroke: #b0b0b0; stroke-width: 0.8; stroke-linecap: square"/>
     </g>
     <g id="line2d_60">
      <g>
       <use xlink:href="#ma028fe1271" x="90" y="345.116807" style="stroke: #000000; stroke-width: 0.8"/>
      </g>
     </g>
     <g id="text_11">
      <!-- 1.0 -->
      <g transform="translate(67.096875 348.916026) scale(0.1 -0.1)">
       <use xlink:href="#DejaVuSans-31"/>
       <use xlink:href="#DejaVuSans-2e" x="63.623047"/>
       <use xlink:href="#DejaVuSans-30" x="95.410156"/>
      </g>
     </g>
    </g>
    <g id="ytick_4">
     <g id="line2d_61">
      <path d="M 90 270.615698 
L 648 270.615698 
" clip-path="url(#pdc7c34a76f)" style="fill: none; stroke: #b0b0b0; stroke-width: 0.8; stroke-linecap: square"/>
     </g>
     <g id="line2d_62">
      <g>
       <use xlink:href="#ma028fe1271" x="90" y="270.615698" style="stroke: #000000; stroke-width: 0.8"/>
      </g>
     </g>
     <g id="text_12">
      <!-- 1.5 -->
      <g transform="translate(67.096875 274.414917) scale(0.1 -0.1)">
       <use xlink:href="#DejaVuSans-31"/>
       <use xlink:href="#DejaVuSans-2e" x="63.623047"/>
       <use xlink:href="#DejaVuSans-35" x="95.410156"/>
      </g>
     </g>
    </g>
    <g id="ytick_5">
     <g id="line2d_63">
      <path d="M 90 196.11459 
L 648 196.11459 
" clip-path="url(#pdc7c34a76f)" style="fill: none; stroke: #b0b0b0; stroke-width: 0.8; stroke-linecap: square"/>
     </g>
     <g id="line2d_64">
      <g>
       <use xlink:href="#ma028fe1271" x="90" y="196.11459" style="stroke: #000000; stroke-width: 0.8"/>
      </g>
     </g>
     <g id="text_13">
      <!-- 2.0 -->
      <g transform="translate(67.096875 199.913809) scale(0.1 -0.1)">
       <use xlink:href="#DejaVuSans-32"/>
       <use xlink:href="#DejaVuSans-2e" x="63.623047"/>
       <use xlink:href="#DejaVuSans-30" x="95.410156"/>
      </g>
     </g>
    </g>
    <g id="ytick_6">
     <g id="line2d_65">
      <path d="M 90 121.613481 
L 648 121.613481 
" clip-path="url(#pdc7c34a76f)" style="fill: none; stroke: #b0b0b0; stroke-width: 0.8; stroke-linecap: square"/>
     </g>
     <g id="line2d_66">
      <g>
       <use xlink:href="#ma028fe1271" x="90" y="121.613481" style="stroke: #000000; stroke-width: 0.8"/>
      </g>
     </g>
     <g id="text_14">
      <!-- 2.5 -->
      <g transform="translate(67.096875 125.4127) scale(0.1 -0.1)">
       <use xlink:href="#DejaVuSans-32"/>
       <use xlink:href="#DejaVuSans-2e" x="63.623047"/>
       <use xlink:href="#DejaVuSans-35" x="95.410156"/>
      </g>
     </g>
    </g>
    <g id="ytick_7">
     <g id="line2d_67">
      <path d="M 90 509.019246 
L 648 509.019246 
" clip-path="url(#pdc7c34a76f)" style="fill: none; stroke-dasharray: 0.8,1.32; stroke-dashoffset: 0; stroke: #b0b0b0; stroke-width: 0.8"/>
     </g>
     <g id="line2d_68">
      <defs>
       <path id="m8b2d47d3cd" d="M 0 0 
L -2 0 
" style="stroke: #000000; stroke-width: 0.6"/>
      </defs>
      <g>
       <use xlink:href="#m8b2d47d3cd" x="90" y="509.019246" style="stroke: #000000; stroke-width: 0.6"/>
      </g>
     </g>
    </g>
    <g id="ytick_8">
     <g id="line2d_69">
      <path d="M 90 479.218803 
L 648 479.218803 
" clip-path="url(#pdc7c34a76f)" style="fill: none; stroke-dasharray: 0.8,1.32; stroke-dashoffset: 0; stroke: #b0b0b0; stroke-width: 0.8"/>
     </g>
     <g id="line2d_70">
      <g>
       <use xlink:href="#m8b2d47d3cd" x="90" y="479.218803" style="stroke: #000000; stroke-width: 0.6"/>
      </g>
     </g>
    </g>
    <g id="ytick_9">
     <g id="line2d_71">
      <path d="M 90 464.318581 
L 648 464.318581 
" clip-path="url(#pdc7c34a76f)" style="fill: none; stroke-dasharray: 0.8,1.32; stroke-dashoffset: 0; stroke: #b0b0b0; stroke-width: 0.8"/>
     </g>
     <g id="line2d_72">
      <g>
       <use xlink:href="#m8b2d47d3cd" x="90" y="464.318581" style="stroke: #000000; stroke-width: 0.6"/>
      </g>
     </g>
    </g>
    <g id="ytick_10">
     <g id="line2d_73">
      <path d="M 90 449.418359 
L 648 449.418359 
" clip-path="url(#pdc7c34a76f)" style="fill: none; stroke-dasharray: 0.8,1.32; stroke-dashoffset: 0; stroke: #b0b0b0; stroke-width: 0.8"/>
     </g>
     <g id="line2d_74">
      <g>
       <use xlink:href="#m8b2d47d3cd" x="90" y="449.418359" style="stroke: #000000; stroke-width: 0.6"/>
      </g>
     </g>
    </g>
    <g id="ytick_11">
     <g id="line2d_75">
      <path d="M 90 434.518137 
L 648 434.518137 
" clip-path="url(#pdc7c34a76f)" style="fill: none; stroke-dasharray: 0.8,1.32; stroke-dashoffset: 0; stroke: #b0b0b0; stroke-width: 0.8"/>
     </g>
     <g id="line2d_76">
      <g>
       <use xlink:href="#m8b2d47d3cd" x="90" y="434.518137" style="stroke: #000000; stroke-width: 0.6"/>
      </g>
     </g>
    </g>
    <g id="ytick_12">
     <g id="line2d_77">
      <path d="M 90 404.717694 
L 648 404.717694 
" clip-path="url(#pdc7c34a76f)" style="fill: none; stroke-dasharray: 0.8,1.32; stroke-dashoffset: 0; stroke: #b0b0b0; stroke-width: 0.8"/>
     </g>
     <g id="line2d_78">
      <g>
       <use xlink:href="#m8b2d47d3cd" x="90" y="404.717694" style="stroke: #000000; stroke-width: 0.6"/>
      </g>
     </g>
    </g>
    <g id="ytick_13">
     <g id="line2d_79">
      <path d="M 90 389.817472 
L 648 389.817472 
" clip-path="url(#pdc7c34a76f)" style="fill: none; stroke-dasharray: 0.8,1.32; stroke-dashoffset: 0; stroke: #b0b0b0; stroke-width: 0.8"/>
     </g>
     <g id="line2d_80">
      <g>
       <use xlink:href="#m8b2d47d3cd" x="90" y="389.817472" style="stroke: #000000; stroke-width: 0.6"/>
      </g>
     </g>
    </g>
    <g id="ytick_14">
     <g id="line2d_81">
      <path d="M 90 374.917251 
L 648 374.917251 
" clip-path="url(#pdc7c34a76f)" style="fill: none; stroke-dasharray: 0.8,1.32; stroke-dashoffset: 0; stroke: #b0b0b0; stroke-width: 0.8"/>
     </g>
     <g id="line2d_82">
      <g>
       <use xlink:href="#m8b2d47d3cd" x="90" y="374.917251" style="stroke: #000000; stroke-width: 0.6"/>
      </g>
     </g>
    </g>
    <g id="ytick_15">
     <g id="line2d_83">
      <path d="M 90 360.017029 
L 648 360.017029 
" clip-path="url(#pdc7c34a76f)" style="fill: none; stroke-dasharray: 0.8,1.32; stroke-dashoffset: 0; stroke: #b0b0b0; stroke-width: 0.8"/>
     </g>
     <g id="line2d_84">
      <g>
       <use xlink:href="#m8b2d47d3cd" x="90" y="360.017029" style="stroke: #000000; stroke-width: 0.6"/>
      </g>
     </g>
    </g>
    <g id="ytick_16">
     <g id="line2d_85">
      <path d="M 90 330.216585 
L 648 330.216585 
" clip-path="url(#pdc7c34a76f)" style="fill: none; stroke-dasharray: 0.8,1.32; stroke-dashoffset: 0; stroke: #b0b0b0; stroke-width: 0.8"/>
     </g>
     <g id="line2d_86">
      <g>
       <use xlink:href="#m8b2d47d3cd" x="90" y="330.216585" style="stroke: #000000; stroke-width: 0.6"/>
      </g>
     </g>
    </g>
    <g id="ytick_17">
     <g id="line2d_87">
      <path d="M 90 315.316364 
L 648 315.316364 
" clip-path="url(#pdc7c34a76f)" style="fill: none; stroke-dasharray: 0.8,1.32; stroke-dashoffset: 0; stroke: #b0b0b0; stroke-width: 0.8"/>
     </g>
     <g id="line2d_88">
      <g>
       <use xlink:href="#m8b2d47d3cd" x="90" y="315.316364" style="stroke: #000000; stroke-width: 0.6"/>
      </g>
     </g>
    </g>
    <g id="ytick_18">
     <g id="line2d_89">
      <path d="M 90 300.416142 
L 648 300.416142 
" clip-path="url(#pdc7c34a76f)" style="fill: none; stroke-dasharray: 0.8,1.32; stroke-dashoffset: 0; stroke: #b0b0b0; stroke-width: 0.8"/>
     </g>
     <g id="line2d_90">
      <g>
       <use xlink:href="#m8b2d47d3cd" x="90" y="300.416142" style="stroke: #000000; stroke-width: 0.6"/>
      </g>
     </g>
    </g>
    <g id="ytick_19">
     <g id="line2d_91">
      <path d="M 90 285.51592 
L 648 285.51592 
" clip-path="url(#pdc7c34a76f)" style="fill: none; stroke-dasharray: 0.8,1.32; stroke-dashoffset: 0; stroke: #b0b0b0; stroke-width: 0.8"/>
     </g>
     <g id="line2d_92">
      <g>
       <use xlink:href="#m8b2d47d3cd" x="90" y="285.51592" style="stroke: #000000; stroke-width: 0.6"/>
      </g>
     </g>
    </g>
    <g id="ytick_20">
     <g id="line2d_93">
      <path d="M 90 255.715477 
L 648 255.715477 
" clip-path="url(#pdc7c34a76f)" style="fill: none; stroke-dasharray: 0.8,1.32; stroke-dashoffset: 0; stroke: #b0b0b0; stroke-width: 0.8"/>
     </g>
     <g id="line2d_94">
      <g>
       <use xlink:href="#m8b2d47d3cd" x="90" y="255.715477" style="stroke: #000000; stroke-width: 0.6"/>
      </g>
     </g>
    </g>
    <g id="ytick_21">
     <g id="line2d_95">
      <path d="M 90 240.815255 
L 648 240.815255 
" clip-path="url(#pdc7c34a76f)" style="fill: none; stroke-dasharray: 0.8,1.32; stroke-dashoffset: 0; stroke: #b0b0b0; stroke-width: 0.8"/>
     </g>
     <g id="line2d_96">
      <g>
       <use xlink:href="#m8b2d47d3cd" x="90" y="240.815255" style="stroke: #000000; stroke-width: 0.6"/>
      </g>
     </g>
    </g>
    <g id="ytick_22">
     <g id="line2d_97">
      <path d="M 90 225.915033 
L 648 225.915033 
" clip-path="url(#pdc7c34a76f)" style="fill: none; stroke-dasharray: 0.8,1.32; stroke-dashoffset: 0; stroke: #b0b0b0; stroke-width: 0.8"/>
     </g>
     <g id="line2d_98">
      <g>
       <use xlink:href="#m8b2d47d3cd" x="90" y="225.915033" style="stroke: #000000; stroke-width: 0.6"/>
      </g>
     </g>
    </g>
    <g id="ytick_23">
     <g id="line2d_99">
      <path d="M 90 211.014812 
L 648 211.014812 
" clip-path="url(#pdc7c34a76f)" style="fill: none; stroke-dasharray: 0.8,1.32; stroke-dashoffset: 0; stroke: #b0b0b0; stroke-width: 0.8"/>
     </g>
     <g id="line2d_100">
      <g>
       <use xlink:href="#m8b2d47d3cd" x="90" y="211.014812" style="stroke: #000000; stroke-width: 0.6"/>
      </g>
     </g>
    </g>
    <g id="ytick_24">
     <g id="line2d_101">
      <path d="M 90 181.214368 
L 648 181.214368 
" clip-path="url(#pdc7c34a76f)" style="fill: none; stroke-dasharray: 0.8,1.32; stroke-dashoffset: 0; stroke: #b0b0b0; stroke-width: 0.8"/>
     </g>
     <g id="line2d_102">
      <g>
       <use xlink:href="#m8b2d47d3cd" x="90" y="181.214368" style="stroke: #000000; stroke-width: 0.6"/>
      </g>
     </g>
    </g>
    <g id="ytick_25">
     <g id="line2d_103">
      <path d="M 90 166.314146 
L 648 166.314146 
" clip-path="url(#pdc7c34a76f)" style="fill: none; stroke-dasharray: 0.8,1.32; stroke-dashoffset: 0; stroke: #b0b0b0; stroke-width: 0.8"/>
     </g>
     <g id="line2d_104">
      <g>
       <use xlink:href="#m8b2d47d3cd" x="90" y="166.314146" style="stroke: #000000; stroke-width: 0.6"/>
      </g>
     </g>
    </g>
    <g id="ytick_26">
     <g id="line2d_105">
      <path d="M 90 151.413925 
L 648 151.413925 
" clip-path="url(#pdc7c34a76f)" style="fill: none; stroke-dasharray: 0.8,1.32; stroke-dashoffset: 0; stroke: #b0b0b0; stroke-width: 0.8"/>
     </g>
     <g id="line2d_106">
      <g>
       <use xlink:href="#m8b2d47d3cd" x="90" y="151.413925" style="stroke: #000000; stroke-width: 0.6"/>
      </g>
     </g>
    </g>
    <g id="ytick_27">
     <g id="line2d_107">
      <path d="M 90 136.513703 
L 648 136.513703 
" clip-path="url(#pdc7c34a76f)" style="fill: none; stroke-dasharray: 0.8,1.32; stroke-dashoffset: 0; stroke: #b0b0b0; stroke-width: 0.8"/>
     </g>
     <g id="line2d_108">
      <g>
       <use xlink:href="#m8b2d47d3cd" x="90" y="136.513703" style="stroke: #000000; stroke-width: 0.6"/>
      </g>
     </g>
    </g>
    <g id="ytick_28">
     <g id="line2d_109">
      <path d="M 90 106.713259 
L 648 106.713259 
" clip-path="url(#pdc7c34a76f)" style="fill: none; stroke-dasharray: 0.8,1.32; stroke-dashoffset: 0; stroke: #b0b0b0; stroke-width: 0.8"/>
     </g>
     <g id="line2d_110">
      <g>
       <use xlink:href="#m8b2d47d3cd" x="90" y="106.713259" style="stroke: #000000; stroke-width: 0.6"/>
      </g>
     </g>
    </g>
    <g id="ytick_29">
     <g id="line2d_111">
      <path d="M 90 91.813038 
L 648 91.813038 
" clip-path="url(#pdc7c34a76f)" style="fill: none; stroke-dasharray: 0.8,1.32; stroke-dashoffset: 0; stroke: #b0b0b0; stroke-width: 0.8"/>
     </g>
     <g id="line2d_112">
      <g>
       <use xlink:href="#m8b2d47d3cd" x="90" y="91.813038" style="stroke: #000000; stroke-width: 0.6"/>
      </g>
     </g>
    </g>
    <g id="ytick_30">
     <g id="line2d_113">
      <path d="M 90 76.912816 
L 648 76.912816 
" clip-path="url(#pdc7c34a76f)" style="fill: none; stroke-dasharray: 0.8,1.32; stroke-dashoffset: 0; stroke: #b0b0b0; stroke-width: 0.8"/>
     </g>
     <g id="line2d_114">
      <g>
       <use xlink:href="#m8b2d47d3cd" x="90" y="76.912816" style="stroke: #000000; stroke-width: 0.6"/>
      </g>
     </g>
    </g>
    <g id="text_15">
     <!-- Напряжение V, В -->
     <g transform="translate(61.017187 335.94875) rotate(-90) scale(0.1 -0.1)">
      <defs>
       <path id="DejaVuSans-41d" d="M 628 4666 
L 1259 4666 
L 1259 2753 
L 3553 2753 
L 3553 4666 
L 4184 4666 
L 4184 0 
L 3553 0 
L 3553 2222 
L 1259 2222 
L 1259 0 
L 628 0 
L 628 4666 
z
" transform="scale(0.015625)"/>
       <path id="DejaVuSans-430" d="M 2194 1759 
Q 1497 1759 1228 1600 
Q 959 1441 959 1056 
Q 959 750 1161 570 
Q 1363 391 1709 391 
Q 2188 391 2477 730 
Q 2766 1069 2766 1631 
L 2766 1759 
L 2194 1759 
z
M 3341 1997 
L 3341 0 
L 2766 0 
L 2766 531 
Q 2569 213 2275 61 
Q 1981 -91 1556 -91 
Q 1019 -91 701 211 
Q 384 513 384 1019 
Q 384 1609 779 1909 
Q 1175 2209 1959 2209 
L 2766 2209 
L 2766 2266 
Q 2766 2663 2505 2880 
Q 2244 3097 1772 3097 
Q 1472 3097 1187 3025 
Q 903 2953 641 2809 
L 641 3341 
Q 956 3463 1253 3523 
Q 1550 3584 1831 3584 
Q 2591 3584 2966 3190 
Q 3341 2797 3341 1997 
z
" transform="scale(0.015625)"/>
       <path id="DejaVuSans-43f" d="M 3603 3500 
L 3603 0 
L 3025 0 
L 3025 3041 
L 1159 3041 
L 1159 0 
L 581 0 
L 581 3500 
L 3603 3500 
z
" transform="scale(0.015625)"/>
       <path id="DejaVuSans-436" d="M 2597 3500 
L 3169 3500 
L 3169 1856 
L 4697 3500 
L 5366 3500 
L 4109 2153 
L 5547 0 
L 4931 0 
L 3753 1769 
L 3169 1141 
L 3169 0 
L 2597 0 
L 2597 1141 
L 2013 1769 
L 834 0 
L 219 0 
L 1656 2153 
L 400 3500 
L 1069 3500 
L 2597 1856 
L 2597 3500 
z
" transform="scale(0.015625)"/>
       <path id="DejaVuSans-43d" d="M 581 3500 
L 1159 3500 
L 1159 2072 
L 3025 2072 
L 3025 3500 
L 3603 3500 
L 3603 0 
L 3025 0 
L 3025 1613 
L 1159 1613 
L 1159 0 
L 581 0 
L 581 3500 
z
" transform="scale(0.015625)"/>
       <path id="DejaVuSans-438" d="M 3578 3500 
L 3578 0 
L 3006 0 
L 3006 2809 
L 1319 0 
L 581 0 
L 581 3500 
L 1153 3500 
L 1153 697 
L 2838 3500 
L 3578 3500 
z
" transform="scale(0.015625)"/>
       <path id="DejaVuSans-56" d="M 1831 0 
L 50 4666 
L 709 4666 
L 2188 738 
L 3669 4666 
L 4325 4666 
L 2547 0 
L 1831 0 
z
" transform="scale(0.015625)"/>
      </defs>
      <use xlink:href="#DejaVuSans-41d"/>
      <use xlink:href="#DejaVuSans-430" x="75.195312"/>
      <use xlink:href="#DejaVuSans-43f" x="136.474609"/>
      <use xlink:href="#DejaVuSans-440" x="201.855469"/>
      <use xlink:href="#DejaVuSans-44f" x="265.332031"/>
      <use xlink:href="#DejaVuSans-436" x="325.488281"/>
      <use xlink:href="#DejaVuSans-435" x="415.576172"/>
      <use xlink:href="#DejaVuSans-43d" x="477.099609"/>
      <use xlink:href="#DejaVuSans-438" x="542.480469"/>
      <use xlink:href="#DejaVuSans-435" x="607.470703"/>
      <use xlink:href="#DejaVuSans-20" x="668.994141"/>
      <use xlink:href="#DejaVuSans-56" x="700.78125"/>
      <use xlink:href="#DejaVuSans-2c" x="769.189453"/>
      <use xlink:href="#DejaVuSans-20" x="800.976562"/>
      <use xlink:href="#DejaVuSans-412" x="832.763672"/>
     </g>
    </g>
   </g>
   <g id="line2d_115">
    <path d="M 115.363636 492.48 
L 115.929158 485.923902 
L 117.625722 476.089756 
L 118.191244 469.533659 
L 119.322286 462.977561 
L 119.887808 456.421463 
L 120.453329 456.421463 
L 121.018851 449.865366 
L 121.584372 449.865366 
L 122.149894 443.309268 
L 122.715415 443.309268 
L 123.280936 433.475122 
L 130.632715 390.860488 
L 131.198237 390.860488 
L 131.763758 384.30439 
L 134.025844 371.192195 
L 134.591365 371.192195 
L 135.156887 364.636098 
L 135.722408 364.636098 
L 140.24658 338.411707 
L 140.812101 338.411707 
L 143.074187 325.299512 
L 143.639708 325.299512 
L 145.901794 312.187317 
L 146.467315 312.187317 
L 147.598358 305.63122 
L 148.16388 305.63122 
L 149.294922 299.075122 
L 149.860444 299.075122 
L 150.991487 292.519024 
L 151.557008 292.519024 
L 152.688051 285.962927 
L 153.819094 285.962927 
L 154.384615 279.406829 
L 154.950137 279.406829 
L 155.515658 276.12878 
L 156.08118 276.12878 
L 157.212223 269.572683 
L 157.777744 269.572683 
L 158.343265 266.294634 
L 158.908787 266.294634 
L 160.03983 259.738537 
L 161.170873 259.738537 
L 162.301915 253.182439 
L 163.432958 253.182439 
L 164.564001 246.626341 
L 165.129523 246.626341 
L 165.695044 243.348293 
L 166.260566 243.348293 
L 166.826087 240.070244 
L 167.391608 240.070244 
L 167.95713 236.792195 
L 168.522651 236.792195 
L 169.088173 233.514146 
L 170.784737 233.514146 
L 171.350258 226.958049 
L 172.481301 226.958049 
L 173.046823 223.68 
L 173.612344 223.68 
L 174.177866 220.401951 
L 175.308908 220.401951 
L 175.87443 217.123902 
L 176.439951 217.123902 
L 177.005473 213.845854 
L 177.570994 213.845854 
L 178.136516 210.567805 
L 179.83308 210.567805 
L 180.964123 204.011707 
L 182.095166 204.011707 
L 182.660687 200.733659 
L 183.79173 200.733659 
L 184.357251 197.45561 
L 184.922773 197.45561 
L 185.488294 194.177561 
L 187.184859 194.177561 
L 187.75038 190.899512 
L 188.315901 190.899512 
L 188.881423 187.621463 
L 190.012466 187.621463 
L 190.577987 184.343415 
L 192.274552 184.343415 
L 193.405594 177.787317 
L 196.798723 177.787317 
L 197.929766 171.23122 
L 200.191852 171.23122 
L 200.757373 167.953171 
L 202.453937 167.953171 
L 203.019459 164.675122 
L 204.150502 164.675122 
L 204.716023 161.397073 
L 205.847066 161.397073 
L 206.412587 158.119024 
L 208.674673 158.119024 
L 209.240195 154.840976 
L 211.50228 154.840976 
L 212.067802 151.562927 
L 214.329888 151.562927 
L 214.895409 148.284878 
L 217.157495 148.284878 
L 217.723016 145.006829 
L 218.854059 145.006829 
L 219.41958 141.72878 
L 219.985102 145.006829 
L 220.550623 141.72878 
L 222.247188 141.72878 
L 222.812709 138.450732 
L 226.771359 138.450732 
L 227.336881 135.172683 
L 230.164488 135.172683 
L 230.730009 131.894634 
L 233.557616 131.894634 
L 234.123138 128.616585 
L 236.385223 128.616585 
L 236.950745 125.338537 
L 243.171481 125.338537 
L 243.737002 122.060488 
L 248.261174 122.060488 
L 248.826695 118.782439 
L 249.392216 122.060488 
L 249.957738 118.782439 
L 252.785345 118.782439 
L 253.350867 115.50439 
L 253.916388 118.782439 
L 254.481909 115.50439 
L 259.571602 115.50439 
L 260.137124 112.226341 
L 265.226817 112.226341 
L 265.792338 108.948293 
L 270.882031 108.948293 
L 271.447552 105.670244 
L 272.013074 108.948293 
L 272.578595 108.948293 
L 273.144117 105.670244 
L 278.23381 105.670244 
L 278.799331 102.392195 
L 279.364853 105.670244 
L 279.930374 105.670244 
L 280.495895 102.392195 
L 281.061417 105.670244 
L 281.626938 105.670244 
L 282.19246 102.392195 
L 286.716631 102.392195 
L 287.282153 99.114146 
L 287.847674 102.392195 
L 288.413196 102.392195 
L 288.978717 99.114146 
L 289.544238 99.114146 
L 290.10976 102.392195 
L 291.806324 102.392195 
L 292.371846 99.114146 
L 303.116753 99.114146 
L 303.682274 95.836098 
L 304.247796 99.114146 
L 304.813317 95.836098 
L 317.254789 95.836098 
L 317.82031 92.558049 
L 318.385832 92.558049 
L 318.951353 95.836098 
L 319.516874 95.836098 
L 320.082396 92.558049 
L 320.647917 92.558049 
L 321.213439 95.836098 
L 321.77896 92.558049 
L 331.392825 92.558049 
L 331.958346 89.28 
L 332.523867 95.836098 
L 333.089389 99.114146 
L 333.65491 99.114146 
L 334.220432 105.670244 
L 335.351475 112.226341 
L 335.916996 118.782439 
L 336.482517 118.782439 
L 337.048039 125.338537 
L 337.61356 125.338537 
L 338.179082 131.894634 
L 339.310125 138.450732 
L 339.875646 138.450732 
L 340.441168 145.006829 
L 341.006689 145.006829 
L 346.661903 177.787317 
L 347.227425 177.787317 
L 350.055032 194.177561 
L 350.620553 194.177561 
L 351.186075 200.733659 
L 351.751596 200.733659 
L 352.317118 204.011707 
L 352.882639 204.011707 
L 355.710246 220.401951 
L 356.275768 220.401951 
L 358.537853 233.514146 
L 359.103375 233.514146 
L 360.234418 240.070244 
L 360.799939 240.070244 
L 361.365461 243.348293 
L 361.930982 243.348293 
L 363.627546 253.182439 
L 364.193068 253.182439 
L 364.758589 256.460488 
L 365.324111 256.460488 
L 366.455154 263.016585 
L 367.020675 263.016585 
L 368.151718 269.572683 
L 368.717239 269.572683 
L 369.282761 272.850732 
L 369.848282 272.850732 
L 370.413804 276.12878 
L 370.979325 276.12878 
L 371.544846 279.406829 
L 372.110368 279.406829 
L 372.675889 282.684878 
L 373.241411 282.684878 
L 373.806932 285.962927 
L 374.372454 285.962927 
L 374.937975 289.240976 
L 375.503497 289.240976 
L 376.634539 295.797073 
L 377.765582 295.797073 
L 378.331104 299.075122 
L 378.896625 299.075122 
L 379.462147 302.353171 
L 380.027668 302.353171 
L 381.158711 308.909268 
L 382.289754 308.909268 
L 382.855275 312.187317 
L 383.420797 312.187317 
L 383.986318 315.465366 
L 384.551839 315.465366 
L 385.117361 318.743415 
L 385.682882 318.743415 
L 386.248404 322.021463 
L 387.379447 322.021463 
L 387.944968 325.299512 
L 388.51049 325.299512 
L 389.076011 328.577561 
L 389.641532 328.577561 
L 390.207054 331.85561 
L 390.772575 331.85561 
L 391.338097 335.133659 
L 393.034661 335.133659 
L 394.165704 341.689756 
L 395.296747 341.689756 
L 395.862268 344.967805 
L 396.42779 344.967805 
L 396.993311 348.245854 
L 398.689875 348.245854 
L 399.255397 351.523902 
L 399.820918 351.523902 
L 400.38644 354.801951 
L 401.517483 354.801951 
L 402.083004 358.08 
L 402.648525 358.08 
L 403.214047 361.358049 
L 404.34509 361.358049 
L 404.910611 364.636098 
L 406.607175 364.636098 
L 407.172697 367.914146 
L 408.30374 367.914146 
L 408.869261 371.192195 
L 410.000304 371.192195 
L 410.565825 374.470244 
L 412.26239 374.470244 
L 412.827911 377.748293 
L 413.393433 377.748293 
L 413.958954 381.026341 
L 415.655518 381.026341 
L 416.22104 384.30439 
L 417.352083 384.30439 
L 417.917604 387.582439 
L 418.483126 387.582439 
L 419.048647 390.860488 
L 422.441776 390.860488 
L 423.007297 394.138537 
L 424.13834 394.138537 
L 424.703861 397.416585 
L 425.834904 397.416585 
L 426.400426 400.694634 
L 428.662511 400.694634 
L 429.228033 403.972683 
L 430.924597 403.972683 
L 431.490119 407.250732 
L 432.621161 407.250732 
L 433.186683 410.52878 
L 435.448769 410.52878 
L 436.01429 413.806829 
L 438.276376 413.806829 
L 438.841897 417.084878 
L 439.407419 413.806829 
L 439.97294 417.084878 
L 441.103983 417.084878 
L 441.669504 420.362927 
L 443.93159 420.362927 
L 444.497112 423.640976 
L 446.759197 423.640976 
L 447.324719 426.919024 
L 449.586804 426.919024 
L 450.152326 430.197073 
L 453.545455 430.197073 
L 454.110976 433.475122 
L 456.373062 433.475122 
L 456.938583 436.753171 
L 459.200669 436.753171 
L 459.76619 440.03122 
L 460.331712 436.753171 
L 460.897233 440.03122 
L 462.593798 440.03122 
L 463.159319 443.309268 
L 468.814533 443.309268 
L 469.380055 446.587317 
L 473.338705 446.587317 
L 473.904226 449.865366 
L 476.731833 449.865366 
L 477.297355 453.143415 
L 482.387048 453.143415 
L 482.952569 456.421463 
L 488.607784 456.421463 
L 489.173305 459.699512 
L 493.697476 459.699512 
L 494.262998 462.977561 
L 494.828519 459.699512 
L 495.394041 462.977561 
L 501.614777 462.977561 
L 502.180298 466.25561 
L 507.269991 466.25561 
L 507.835512 469.533659 
L 516.883855 469.533659 
L 517.449377 472.811707 
L 526.49772 472.811707 
L 527.063241 476.089756 
L 527.628763 472.811707 
L 528.194284 476.089756 
L 537.242627 476.089756 
L 537.808148 479.367805 
L 549.684099 479.367805 
L 550.24962 482.645854 
L 550.815141 479.367805 
L 552.511706 479.367805 
L 553.077227 482.645854 
L 553.642749 482.645854 
L 554.20827 479.367805 
L 554.773791 482.645854 
L 566.08422 482.645854 
L 566.649742 485.923902 
L 567.215263 482.645854 
L 571.739434 482.645854 
L 572.304956 485.923902 
L 573.435999 485.923902 
L 574.00152 482.645854 
L 574.567042 485.923902 
L 589.83612 485.923902 
L 590.401642 489.201951 
L 590.967163 485.923902 
L 592.098206 485.923902 
L 592.663728 489.201951 
L 622.070842 489.201951 
L 622.636364 492.48 
L 622.636364 492.48 
" clip-path="url(#pdc7c34a76f)" style="fill: none; stroke: #1f77b4; stroke-width: 1.5; stroke-linecap: square"/>
   </g>
   <g id="line2d_116">
    <defs>
     <path id="me44e8bdfb5" d="M 0 2 
C 0.530406 2 1.03916 1.789267 1.414214 1.414214 
C 1.789267 1.03916 2 0.530406 2 0 
C 2 -0.530406 1.789267 -1.03916 1.414214 -1.414214 
C 1.03916 -1.789267 0.530406 -2 0 -2 
C -0.530406 -2 -1.03916 -1.789267 -1.414214 -1.414214 
C -1.789267 -1.03916 -2 -0.530406 -2 0 
C -2 0.530406 -1.789267 1.03916 -1.414214 1.414214 
C -1.03916 1.789267 -0.530406 2 0 2 
z
" style="stroke: #ff0000"/>
    </defs>
    <g clip-path="url(#pdc7c34a76f)">
     <use xlink:href="#me44e8bdfb5" x="115.363636" y="492.48" style="fill: #ff0000; stroke: #ff0000"/>
     <use xlink:href="#me44e8bdfb5" x="119.322286" y="462.977561" style="fill: #ff0000; stroke: #ff0000"/>
     <use xlink:href="#me44e8bdfb5" x="123.280936" y="433.475122" style="fill: #ff0000; stroke: #ff0000"/>
     <use xlink:href="#me44e8bdfb5" x="127.239587" y="410.52878" style="fill: #ff0000; stroke: #ff0000"/>
     <use xlink:href="#me44e8bdfb5" x="132.329279" y="381.026341" style="fill: #ff0000; stroke: #ff0000"/>
     <use xlink:href="#me44e8bdfb5" x="137.418972" y="354.801951" style="fill: #ff0000; stroke: #ff0000"/>
     <use xlink:href="#me44e8bdfb5" x="142.508665" y="328.577561" style="fill: #ff0000; stroke: #ff0000"/>
     <use xlink:href="#me44e8bdfb5" x="148.729401" y="302.353171" style="fill: #ff0000; stroke: #ff0000"/>
     <use xlink:href="#me44e8bdfb5" x="156.08118" y="276.12878" style="fill: #ff0000; stroke: #ff0000"/>
     <use xlink:href="#me44e8bdfb5" x="163.99848" y="249.90439" style="fill: #ff0000; stroke: #ff0000"/>
     <use xlink:href="#me44e8bdfb5" x="171.350258" y="226.958049" style="fill: #ff0000; stroke: #ff0000"/>
     <use xlink:href="#me44e8bdfb5" x="180.964123" y="204.011707" style="fill: #ff0000; stroke: #ff0000"/>
     <use xlink:href="#me44e8bdfb5" x="192.274552" y="184.343415" style="fill: #ff0000; stroke: #ff0000"/>
     <use xlink:href="#me44e8bdfb5" x="204.150502" y="164.675122" style="fill: #ff0000; stroke: #ff0000"/>
     <use xlink:href="#me44e8bdfb5" x="217.723016" y="145.006829" style="fill: #ff0000; stroke: #ff0000"/>
     <use xlink:href="#me44e8bdfb5" x="230.164488" y="135.172683" style="fill: #ff0000; stroke: #ff0000"/>
     <use xlink:href="#me44e8bdfb5" x="248.261174" y="122.060488" style="fill: #ff0000; stroke: #ff0000"/>
     <use xlink:href="#me44e8bdfb5" x="259.571602" y="115.50439" style="fill: #ff0000; stroke: #ff0000"/>
     <use xlink:href="#me44e8bdfb5" x="275.406202" y="105.670244" style="fill: #ff0000; stroke: #ff0000"/>
     <use xlink:href="#me44e8bdfb5" x="287.282153" y="99.114146" style="fill: #ff0000; stroke: #ff0000"/>
     <use xlink:href="#me44e8bdfb5" x="303.116753" y="99.114146" style="fill: #ff0000; stroke: #ff0000"/>
     <use xlink:href="#me44e8bdfb5" x="319.516874" y="95.836098" style="fill: #ff0000; stroke: #ff0000"/>
     <use xlink:href="#me44e8bdfb5" x="332.523867" y="95.836098" style="fill: #ff0000; stroke: #ff0000"/>
     <use xlink:href="#me44e8bdfb5" x="336.482517" y="118.782439" style="fill: #ff0000; stroke: #ff0000"/>
     <use xlink:href="#me44e8bdfb5" x="341.57221" y="148.284878" style="fill: #ff0000; stroke: #ff0000"/>
     <use xlink:href="#me44e8bdfb5" x="346.096382" y="174.509268" style="fill: #ff0000; stroke: #ff0000"/>
     <use xlink:href="#me44e8bdfb5" x="352.317118" y="204.011707" style="fill: #ff0000; stroke: #ff0000"/>
     <use xlink:href="#me44e8bdfb5" x="357.972332" y="230.236098" style="fill: #ff0000; stroke: #ff0000"/>
     <use xlink:href="#me44e8bdfb5" x="364.758589" y="256.460488" style="fill: #ff0000; stroke: #ff0000"/>
     <use xlink:href="#me44e8bdfb5" x="372.110368" y="279.406829" style="fill: #ff0000; stroke: #ff0000"/>
     <use xlink:href="#me44e8bdfb5" x="380.593189" y="305.63122" style="fill: #ff0000; stroke: #ff0000"/>
     <use xlink:href="#me44e8bdfb5" x="389.076011" y="328.577561" style="fill: #ff0000; stroke: #ff0000"/>
     <use xlink:href="#me44e8bdfb5" x="399.255397" y="351.523902" style="fill: #ff0000; stroke: #ff0000"/>
     <use xlink:href="#me44e8bdfb5" x="409.434783" y="371.192195" style="fill: #ff0000; stroke: #ff0000"/>
     <use xlink:href="#me44e8bdfb5" x="421.310733" y="390.860488" style="fill: #ff0000; stroke: #ff0000"/>
     <use xlink:href="#me44e8bdfb5" x="433.752204" y="410.52878" style="fill: #ff0000; stroke: #ff0000"/>
     <use xlink:href="#me44e8bdfb5" x="445.628154" y="423.640976" style="fill: #ff0000; stroke: #ff0000"/>
     <use xlink:href="#me44e8bdfb5" x="459.76619" y="440.03122" style="fill: #ff0000; stroke: #ff0000"/>
     <use xlink:href="#me44e8bdfb5" x="475.035269" y="449.865366" style="fill: #ff0000; stroke: #ff0000"/>
     <use xlink:href="#me44e8bdfb5" x="493.697476" y="459.699512" style="fill: #ff0000; stroke: #ff0000"/>
     <use xlink:href="#me44e8bdfb5" x="509.532077" y="469.533659" style="fill: #ff0000; stroke: #ff0000"/>
     <use xlink:href="#me44e8bdfb5" x="528.194284" y="476.089756" style="fill: #ff0000; stroke: #ff0000"/>
     <use xlink:href="#me44e8bdfb5" x="550.24962" y="482.645854" style="fill: #ff0000; stroke: #ff0000"/>
     <use xlink:href="#me44e8bdfb5" x="566.08422" y="482.645854" style="fill: #ff0000; stroke: #ff0000"/>
     <use xlink:href="#me44e8bdfb5" x="582.484342" y="485.923902" style="fill: #ff0000; stroke: #ff0000"/>
     <use xlink:href="#me44e8bdfb5" x="602.843113" y="489.201951" style="fill: #ff0000; stroke: #ff0000"/>
    </g>
   </g>
   <g id="patch_3">
    <path d="M 90 512.64 
L 90 69.12 
" style="fill: none; stroke: #000000; stroke-width: 0.8; stroke-linejoin: miter; stroke-linecap: square"/>
   </g>
   <g id="patch_4">
    <path d="M 648 512.64 
L 648 69.12 
" style="fill: none; stroke: #000000; stroke-width: 0.8; stroke-linejoin: miter; stroke-linecap: square"/>
   </g>
   <g id="patch_5">
    <path d="M 90 512.64 
L 648 512.64 
" style="fill: none; stroke: #000000; stroke-width: 0.8; stroke-linejoin: miter; stroke-linecap: square"/>
   </g>
   <g id="patch_6">
    <path d="M 90 69.12 
L 648 69.12 
" style="fill: none; stroke: #000000; stroke-width: 0.8; stroke-linejoin: miter; stroke-linecap: square"/>
   </g>
   <g id="text_16">
    <!-- Время зарядки  = 5.13 c -->
    <g transform="translate(452.988374 270.615698) scale(0.1 -0.1)">
     <defs>
      <path id="DejaVuSans-437" d="M 2206 1888 
Q 2594 1813 2809 1584 
Q 3025 1356 3025 1019 
Q 3025 478 2622 193 
Q 2219 -91 1475 -91 
Q 1225 -91 961 -47 
Q 697 -3 416 84 
L 416 619 
Q 638 503 903 445 
Q 1169 388 1459 388 
Q 1931 388 2195 563 
Q 2459 738 2459 1019 
Q 2459 1294 2225 1461 
Q 1991 1628 1563 1628 
L 1100 1628 
L 1100 2103 
L 1584 2103 
Q 1947 2103 2158 2242 
Q 2369 2381 2369 2600 
Q 2369 2800 2151 2944 
Q 1934 3088 1563 3088 
Q 1341 3088 1089 3047 
Q 838 3006 534 2916 
L 534 3438 
Q 841 3513 1106 3550 
Q 1372 3588 1609 3588 
Q 2222 3588 2576 3342 
Q 2931 3097 2931 2656 
Q 2931 2366 2743 2164 
Q 2556 1963 2206 1888 
z
" transform="scale(0.015625)"/>
      <path id="DejaVuSans-434" d="M 1384 459 
L 3053 459 
L 3053 3041 
L 1844 3041 
L 1844 2603 
Q 1844 1316 1475 628 
L 1384 459 
z
M 550 459 
Q 834 584 959 850 
Q 1266 1509 1266 2838 
L 1266 3500 
L 3631 3500 
L 3631 459 
L 4091 459 
L 4091 -884 
L 3631 -884 
L 3631 0 
L 794 0 
L 794 -884 
L 334 -884 
L 334 459 
L 550 459 
z
" transform="scale(0.015625)"/>
      <path id="DejaVuSans-43a" d="M 581 3500 
L 1153 3500 
L 1153 1856 
L 2775 3500 
L 3481 3500 
L 2144 2147 
L 3653 0 
L 3009 0 
L 1769 1766 
L 1153 1141 
L 1153 0 
L 581 0 
L 581 3500 
z
" transform="scale(0.015625)"/>
      <path id="DejaVuSans-3d" d="M 678 2906 
L 4684 2906 
L 4684 2381 
L 678 2381 
L 678 2906 
z
M 678 1631 
L 4684 1631 
L 4684 1100 
L 678 1100 
L 678 1631 
z
" transform="scale(0.015625)"/>
      <path id="DejaVuSans-33" d="M 2597 2516 
Q 3050 2419 3304 2112 
Q 3559 1806 3559 1356 
Q 3559 666 3084 287 
Q 2609 -91 1734 -91 
Q 1441 -91 1130 -33 
Q 819 25 488 141 
L 488 750 
Q 750 597 1062 519 
Q 1375 441 1716 441 
Q 2309 441 2620 675 
Q 2931 909 2931 1356 
Q 2931 1769 2642 2001 
Q 2353 2234 1838 2234 
L 1294 2234 
L 1294 2753 
L 1863 2753 
Q 2328 2753 2575 2939 
Q 2822 3125 2822 3475 
Q 2822 3834 2567 4026 
Q 2313 4219 1838 4219 
Q 1578 4219 1281 4162 
Q 984 4106 628 3988 
L 628 4550 
Q 988 4650 1302 4700 
Q 1616 4750 1894 4750 
Q 2613 4750 3031 4423 
Q 3450 4097 3450 3541 
Q 3450 3153 3228 2886 
Q 3006 2619 2597 2516 
z
" transform="scale(0.015625)"/>
      <path id="DejaVuSans-63" d="M 3122 3366 
L 3122 2828 
Q 2878 2963 2633 3030 
Q 2388 3097 2138 3097 
Q 1578 3097 1268 2742 
Q 959 2388 959 1747 
Q 959 1106 1268 751 
Q 1578 397 2138 397 
Q 2388 397 2633 464 
Q 2878 531 3122 666 
L 3122 134 
Q 2881 22 2623 -34 
Q 2366 -91 2075 -91 
Q 1284 -91 818 406 
Q 353 903 353 1747 
Q 353 2603 823 3093 
Q 1294 3584 2113 3584 
Q 2378 3584 2631 3529 
Q 2884 3475 3122 3366 
z
" transform="scale(0.015625)"/>
     </defs>
     <use xlink:href="#DejaVuSans-412"/>
     <use xlink:href="#DejaVuSans-440" x="68.603516"/>
     <use xlink:href="#DejaVuSans-435" x="132.080078"/>
     <use xlink:href="#DejaVuSans-43c" x="193.603516"/>
     <use xlink:href="#DejaVuSans-44f" x="269.042969"/>
     <use xlink:href="#DejaVuSans-20" x="329.199219"/>
     <use xlink:href="#DejaVuSans-437" x="360.986328"/>
     <use xlink:href="#DejaVuSans-430" x="414.160156"/>
     <use xlink:href="#DejaVuSans-440" x="475.439453"/>
     <use xlink:href="#DejaVuSans-44f" x="538.916016"/>
     <use xlink:href="#DejaVuSans-434" x="599.072266"/>
     <use xlink:href="#DejaVuSans-43a" x="668.212891"/>
     <use xlink:href="#DejaVuSans-438" x="728.613281"/>
     <use xlink:href="#DejaVuSans-20" x="793.603516"/>
     <use xlink:href="#DejaVuSans-20" x="825.390625"/>
     <use xlink:href="#DejaVuSans-3d" x="857.177734"/>
     <use xlink:href="#DejaVuSans-20" x="940.966797"/>
     <use xlink:href="#DejaVuSans-35" x="972.753906"/>
     <use xlink:href="#DejaVuSans-2e" x="1036.376953"/>
     <use xlink:href="#DejaVuSans-31" x="1068.164062"/>
     <use xlink:href="#DejaVuSans-33" x="1131.787109"/>
     <use xlink:href="#DejaVuSans-20" x="1195.410156"/>
     <use xlink:href="#DejaVuSans-63" x="1227.197266"/>
    </g>
   </g>
   <g id="text_17">
    <!-- Время разрядки = 6.9 c -->
    <g transform="translate(452.988374 285.51592) scale(0.1 -0.1)">
     <defs>
      <path id="DejaVuSans-39" d="M 703 97 
L 703 672 
Q 941 559 1184 500 
Q 1428 441 1663 441 
Q 2288 441 2617 861 
Q 2947 1281 2994 2138 
Q 2813 1869 2534 1725 
Q 2256 1581 1919 1581 
Q 1219 1581 811 2004 
Q 403 2428 403 3163 
Q 403 3881 828 4315 
Q 1253 4750 1959 4750 
Q 2769 4750 3195 4129 
Q 3622 3509 3622 2328 
Q 3622 1225 3098 567 
Q 2575 -91 1691 -91 
Q 1453 -91 1209 -44 
Q 966 3 703 97 
z
M 1959 2075 
Q 2384 2075 2632 2365 
Q 2881 2656 2881 3163 
Q 2881 3666 2632 3958 
Q 2384 4250 1959 4250 
Q 1534 4250 1286 3958 
Q 1038 3666 1038 3163 
Q 1038 2656 1286 2365 
Q 1534 2075 1959 2075 
z
" transform="scale(0.015625)"/>
     </defs>
     <use xlink:href="#DejaVuSans-412"/>
     <use xlink:href="#DejaVuSans-440" x="68.603516"/>
     <use xlink:href="#DejaVuSans-435" x="132.080078"/>
     <use xlink:href="#DejaVuSans-43c" x="193.603516"/>
     <use xlink:href="#DejaVuSans-44f" x="269.042969"/>
     <use xlink:href="#DejaVuSans-20" x="329.199219"/>
     <use xlink:href="#DejaVuSans-440" x="360.986328"/>
     <use xlink:href="#DejaVuSans-430" x="424.462891"/>
     <use xlink:href="#DejaVuSans-437" x="485.742188"/>
     <use xlink:href="#DejaVuSans-440" x="538.916016"/>
     <use xlink:href="#DejaVuSans-44f" x="602.392578"/>
     <use xlink:href="#DejaVuSans-434" x="662.548828"/>
     <use xlink:href="#DejaVuSans-43a" x="731.689453"/>
     <use xlink:href="#DejaVuSans-438" x="792.089844"/>
     <use xlink:href="#DejaVuSans-20" x="857.080078"/>
     <use xlink:href="#DejaVuSans-3d" x="888.867188"/>
     <use xlink:href="#DejaVuSans-20" x="972.65625"/>
     <use xlink:href="#DejaVuSans-36" x="1004.443359"/>
     <use xlink:href="#DejaVuSans-2e" x="1068.066406"/>
     <use xlink:href="#DejaVuSans-39" x="1099.853516"/>
     <use xlink:href="#DejaVuSans-20" x="1163.476562"/>
     <use xlink:href="#DejaVuSans-63" x="1195.263672"/>
    </g>
   </g>
   <g id="text_18">
    <!-- Зарядка и разрядка конденсатора от времени в RC цепи -->
    <g transform="translate(157.676562 63.12) scale(0.14 -0.14)">
     <defs>
      <path id="DejaVuSans-417" d="M 1828 4750 
Q 2597 4750 3084 4423 
Q 3572 4097 3572 3541 
Q 3572 3153 3350 2886 
Q 3128 2619 2719 2516 
Q 3172 2419 3426 2112 
Q 3681 1806 3681 1356 
Q 3681 638 3126 273 
Q 2572 -91 1828 -91 
Q 1447 -91 1003 12 
Q 559 116 422 203 
L 422 853 
Q 900 575 1164 508 
Q 1428 441 1816 441 
Q 2403 441 2728 666 
Q 3053 891 3053 1356 
Q 3053 1769 2764 2001 
Q 2475 2234 1866 2234 
L 1228 2234 
L 1228 2753 
L 1891 2753 
Q 2450 2753 2697 2939 
Q 2944 3125 2944 3475 
Q 2944 3834 2689 4026 
Q 2434 4219 1816 4219 
Q 1397 4219 1253 4181 
Q 1109 4144 469 3903 
L 469 4519 
Q 822 4644 1190 4697 
Q 1559 4750 1828 4750 
z
" transform="scale(0.015625)"/>
      <path id="DejaVuSans-43e" d="M 1959 3097 
Q 1497 3097 1228 2736 
Q 959 2375 959 1747 
Q 959 1119 1226 758 
Q 1494 397 1959 397 
Q 2419 397 2687 759 
Q 2956 1122 2956 1747 
Q 2956 2369 2687 2733 
Q 2419 3097 1959 3097 
z
M 1959 3584 
Q 2709 3584 3137 3096 
Q 3566 2609 3566 1747 
Q 3566 888 3137 398 
Q 2709 -91 1959 -91 
Q 1206 -91 779 398 
Q 353 888 353 1747 
Q 353 2609 779 3096 
Q 1206 3584 1959 3584 
z
" transform="scale(0.015625)"/>
      <path id="DejaVuSans-442" d="M 188 3500 
L 3541 3500 
L 3541 3041 
L 2147 3041 
L 2147 0 
L 1581 0 
L 1581 3041 
L 188 3041 
L 188 3500 
z
" transform="scale(0.015625)"/>
      <path id="DejaVuSans-432" d="M 1156 1613 
L 1156 459 
L 1975 459 
Q 2369 459 2575 607 
Q 2781 756 2781 1038 
Q 2781 1319 2575 1466 
Q 2369 1613 1975 1613 
L 1156 1613 
z
M 1156 3041 
L 1156 2072 
L 1913 2072 
Q 2238 2072 2444 2201 
Q 2650 2331 2650 2563 
Q 2650 2794 2444 2917 
Q 2238 3041 1913 3041 
L 1156 3041 
z
M 581 3500 
L 1950 3500 
Q 2566 3500 2897 3275 
Q 3228 3050 3228 2634 
Q 3228 2313 3059 2123 
Q 2891 1934 2559 1888 
Q 2956 1813 3175 1575 
Q 3394 1338 3394 981 
Q 3394 513 3033 256 
Q 2672 0 2003 0 
L 581 0 
L 581 3500 
z
" transform="scale(0.015625)"/>
      <path id="DejaVuSans-52" d="M 2841 2188 
Q 3044 2119 3236 1894 
Q 3428 1669 3622 1275 
L 4263 0 
L 3584 0 
L 2988 1197 
Q 2756 1666 2539 1819 
Q 2322 1972 1947 1972 
L 1259 1972 
L 1259 0 
L 628 0 
L 628 4666 
L 2053 4666 
Q 2853 4666 3247 4331 
Q 3641 3997 3641 3322 
Q 3641 2881 3436 2590 
Q 3231 2300 2841 2188 
z
M 1259 4147 
L 1259 2491 
L 2053 2491 
Q 2509 2491 2742 2702 
Q 2975 2913 2975 3322 
Q 2975 3731 2742 3939 
Q 2509 4147 2053 4147 
L 1259 4147 
z
" transform="scale(0.015625)"/>
      <path id="DejaVuSans-43" d="M 4122 4306 
L 4122 3641 
Q 3803 3938 3442 4084 
Q 3081 4231 2675 4231 
Q 1875 4231 1450 3742 
Q 1025 3253 1025 2328 
Q 1025 1406 1450 917 
Q 1875 428 2675 428 
Q 3081 428 3442 575 
Q 3803 722 4122 1019 
L 4122 359 
Q 3791 134 3420 21 
Q 3050 -91 2638 -91 
Q 1578 -91 968 557 
Q 359 1206 359 2328 
Q 359 3453 968 4101 
Q 1578 4750 2638 4750 
Q 3056 4750 3426 4639 
Q 3797 4528 4122 4306 
z
" transform="scale(0.015625)"/>
      <path id="DejaVuSans-446" d="M 3603 0 
L 581 0 
L 581 3500 
L 1159 3500 
L 1159 459 
L 3025 459 
L 3025 3500 
L 3603 3500 
L 3603 459 
L 4063 459 
L 4063 -884 
L 3603 -884 
L 3603 0 
z
" transform="scale(0.015625)"/>
     </defs>
     <use xlink:href="#DejaVuSans-417"/>
     <use xlink:href="#DejaVuSans-430" x="64.111328"/>
     <use xlink:href="#DejaVuSans-440" x="125.390625"/>
     <use xlink:href="#DejaVuSans-44f" x="188.867188"/>
     <use xlink:href="#DejaVuSans-434" x="249.023438"/>
     <use xlink:href="#DejaVuSans-43a" x="318.164062"/>
     <use xlink:href="#DejaVuSans-430" x="378.564453"/>
     <use xlink:href="#DejaVuSans-20" x="439.84375"/>
     <use xlink:href="#DejaVuSans-438" x="471.630859"/>
     <use xlink:href="#DejaVuSans-20" x="536.621094"/>
     <use xlink:href="#DejaVuSans-440" x="568.408203"/>
     <use xlink:href="#DejaVuSans-430" x="631.884766"/>
     <use xlink:href="#DejaVuSans-437" x="693.164062"/>
     <use xlink:href="#DejaVuSans-440" x="746.337891"/>
     <use xlink:href="#DejaVuSans-44f" x="809.814453"/>
     <use xlink:href="#DejaVuSans-434" x="869.970703"/>
     <use xlink:href="#DejaVuSans-43a" x="939.111328"/>
     <use xlink:href="#DejaVuSans-430" x="999.511719"/>
     <use xlink:href="#DejaVuSans-20" x="1060.791016"/>
     <use xlink:href="#DejaVuSans-43a" x="1092.578125"/>
     <use xlink:href="#DejaVuSans-43e" x="1152.978516"/>
     <use xlink:href="#DejaVuSans-43d" x="1214.160156"/>
     <use xlink:href="#DejaVuSans-434" x="1279.541016"/>
     <use xlink:href="#DejaVuSans-435" x="1348.681641"/>
     <use xlink:href="#DejaVuSans-43d" x="1410.205078"/>
     <use xlink:href="#DejaVuSans-441" x="1475.585938"/>
     <use xlink:href="#DejaVuSans-430" x="1530.566406"/>
     <use xlink:href="#DejaVuSans-442" x="1591.845703"/>
     <use xlink:href="#DejaVuSans-43e" x="1650.097656"/>
     <use xlink:href="#DejaVuSans-440" x="1711.279297"/>
     <use xlink:href="#DejaVuSans-430" x="1774.755859"/>
     <use xlink:href="#DejaVuSans-20" x="1836.035156"/>
     <use xlink:href="#DejaVuSans-43e" x="1867.822266"/>
     <use xlink:href="#DejaVuSans-442" x="1929.003906"/>
     <use xlink:href="#DejaVuSans-20" x="1987.255859"/>
     <use xlink:href="#DejaVuSans-432" x="2019.042969"/>
     <use xlink:href="#DejaVuSans-440" x="2077.978516"/>
     <use xlink:href="#DejaVuSans-435" x="2141.455078"/>
     <use xlink:href="#DejaVuSans-43c" x="2202.978516"/>
     <use xlink:href="#DejaVuSans-435" x="2278.417969"/>
     <use xlink:href="#DejaVuSans-43d" x="2339.941406"/>
     <use xlink:href="#DejaVuSans-438" x="2405.322266"/>
     <use xlink:href="#DejaVuSans-20" x="2470.3125"/>
     <use xlink:href="#DejaVuSans-432" x="2502.099609"/>
     <use xlink:href="#DejaVuSans-20" x="2561.035156"/>
     <use xlink:href="#DejaVuSans-52" x="2592.822266"/>
     <use xlink:href="#DejaVuSans-43" x="2657.304688"/>
     <use xlink:href="#DejaVuSans-20" x="2727.128906"/>
     <use xlink:href="#DejaVuSans-446" x="2758.916016"/>
     <use xlink:href="#DejaVuSans-435" x="2826.982422"/>
     <use xlink:href="#DejaVuSans-43f" x="2888.505859"/>
     <use xlink:href="#DejaVuSans-438" x="2953.886719"/>
    </g>
   </g>
   <g id="legend_1">
    <g id="patch_7">
     <path d="M 590.435938 91.798125 
L 641 91.798125 
Q 643 91.798125 643 89.798125 
L 643 76.12 
Q 643 74.12 641 74.12 
L 590.435938 74.12 
Q 588.435938 74.12 588.435938 76.12 
L 588.435938 89.798125 
Q 588.435938 91.798125 590.435938 91.798125 
z
" style="fill: #ffffff; opacity: 0.8; stroke: #cccccc; stroke-linejoin: miter"/>
    </g>
    <g id="line2d_117">
     <g>
      <use xlink:href="#me44e8bdfb5" x="602.435938" y="82.218438" style="fill: #ff0000; stroke: #ff0000"/>
     </g>
    </g>
    <g id="text_19">
     <!-- V(t) -->
     <g transform="translate(620.435938 85.718438) scale(0.1 -0.1)">
      <defs>
       <path id="DejaVuSans-28" d="M 1984 4856 
Q 1566 4138 1362 3434 
Q 1159 2731 1159 2009 
Q 1159 1288 1364 580 
Q 1569 -128 1984 -844 
L 1484 -844 
Q 1016 -109 783 600 
Q 550 1309 550 2009 
Q 550 2706 781 3412 
Q 1013 4119 1484 4856 
L 1984 4856 
z
" transform="scale(0.015625)"/>
       <path id="DejaVuSans-29" d="M 513 4856 
L 1013 4856 
Q 1481 4119 1714 3412 
Q 1947 2706 1947 2009 
Q 1947 1309 1714 600 
Q 1481 -109 1013 -844 
L 513 -844 
Q 928 -128 1133 580 
Q 1338 1288 1338 2009 
Q 1338 2731 1133 3434 
Q 928 4138 513 4856 
z
" transform="scale(0.015625)"/>
      </defs>
      <use xlink:href="#DejaVuSans-56"/>
      <use xlink:href="#DejaVuSans-28" x="68.408203"/>
      <use xlink:href="#DejaVuSans-74" x="107.421875"/>
      <use xlink:href="#DejaVuSans-29" x="146.630859"/>
     </g>
    </g>
   </g>
  </g>
 </g>
 <defs>
  <clipPath id="pdc7c34a76f">
   <rect x="90" y="69.12" width="558" height="443.52"/>
  </clipPath>
 </defs>
</svg>
